{"title":"Almost Human S01E06 HDTV 480p x264 AAC E-Subs [GWC].mp4","uid":9358784,"size":137231010,"categoryP":"video","categoryS":"tv_shows","magnet":"?xt=urn:btih:4e7c6f617bd71577b340c4d3cddf705e492afafc&amp;dn=Almost+Human+S01E06+HDTV+480p+x264+AAC+E-Subs+%5BGWC%5D.mp4&amp;tr=udp%3A%2F%2Ftracker.openbittorrent.com%3A80&amp;tr=udp%3A%2F%2Fopen.demonii.com%3A1337&amp;tr=udp%3A%2F%2Ftracker.coppersurfer.tk%3A6969&amp;tr=udp%3A%2F%2Fexodus.desync.com%3A6969","seeders":0,"leechers":0,"uploader":"canc232","files":1,"time":1387262676,"description":"Almost Human S01E06 HDTV 480p x264 AAC E-Subs [GWC]\n\n\nSCREENS :\n &lt;a href=&quot;\nhttp://s20.postimg.org/ugttluhdp/Almost_Human_S01_E06_Arrhythmia_10_56_55.jpg&quot; rel=&quot;nofollow&quot; target=&quot;_NEW&quot;&gt;\nhttp://s20.postimg.org/ugttluhdp/Almost_Human_S01_E06_Arrhythmia_10_56_55.jpg&lt;/a&gt;\n &lt;a href=&quot;\nhttp://s20.postimg.org/ur1c56vzx/Almost_Human_S01_E06_Arrhythmia_10_57_08.jpg&quot; rel=&quot;nofollow&quot; target=&quot;_NEW&quot;&gt;\nhttp://s20.postimg.org/ur1c56vzx/Almost_Human_S01_E06_Arrhythmia_10_57_08.jpg&lt;/a&gt;\n &lt;a href=&quot;\nhttp://s20.postimg.org/x9n15vhq5/Almost_Human_S01_E06_Arrhythmia_10_57_12.jpg&quot; rel=&quot;nofollow&quot; target=&quot;_NEW&quot;&gt;\nhttp://s20.postimg.org/x9n15vhq5/Almost_Human_S01_E06_Arrhythmia_10_57_12.jpg&lt;/a&gt;\n\n\nMEDIA INFO :\n\nGeneral \nFormat : MPEG-4 \nFormat profile : Base Media \nFile size : 131 MiB \nDuration : 41mn 47s \nOverall bit rate mode : Variable \nOverall bit rate : 438 Kbps \n\nVideo \nFormat : AVC \nFormat profile : &lt;a class=&quot;__cf_email__&quot; href=&quot;/cdn-cgi/l/email-protection&quot; data-cfemail=&quot;4d05242a250d017e637d&quot;&gt;[email&amp;#160;protected]&lt;/a&gt;&lt;script data-cfhash='f9e31' type=&quot;text/javascript&quot;&gt;\n/* &lt;![CDATA[ */!function(){try{var t=&quot;currentScript&quot;in document?document.currentScript:function(){for(var t=document.getElementsByTagName(&quot;script&quot;),e=t.length;e--;)if(t[e].getAttribute(&quot;data-cfhash&quot;))return t[e]}();if(t&amp;&amp;t.previousSibling){var e,r,n,i,c=t.previousSibling,a=c.getAttribute(&quot;data-cfemail&quot;);if(a){for(e=&quot;&quot;,r=parseInt(a.substr(0,2),16),n=2;a.length-n;n+=2)i=parseInt(a.substr(n,2),16)^r,e+=String.fromCharCode(i);e=document.createTextNode(e),c.parentNode.replaceChild(e,c)}t.parentNode.removeChild(t);}}catch(u){}}()/* ]]&gt; */&lt;/script&gt; \nFormat settings, CABAC : Yes \nFormat settings, ReFrames : 4 frames\nDuration : 41mn 42s \nBit rate : 375 Kbps \nMaximum bit rate : 2 472 Kbps \nWidth : 720 pixels \nHeight : 404 pixels \nDisplay aspect ratio : 16:9 \nFrame rate : 23.976 fps \nStream size : 112 MiB (86%) \nTitle : Almost Human S01E06 HDTV 480p x264 AAC E-Subs [GWC] \nWriting library : x264 core \n\nAudio \nFormat : AAC \nFormat profile : HE-AAC / LC\nDuration : 41mn 42s \nBit rate mode : Variable \nChannel(s) : 2 channels\nSampling rate : 48.0 KHz / 24.0 KHz \nStream size : 17.9 MiB \nLanguage : English \n\nText \nFormat : Timed Text \nDuration : 41mn 47s \nStream size : 24.4 KiB (0%) \nTitle : English Subtitle by wilson0804 \nLanguage : English","torrent":{"xt":"urn:btih:4e7c6f617bd71577b340c4d3cddf705e492afafc","amp;dn":"Almost+Human+S01E06+HDTV+480p+x264+AAC+E-Subs+%5BGWC%5D.mp4","amp;tr":["udp%3A%2F%2Ftracker.openbittorrent.com%3A80","udp%3A%2F%2Fopen.demonii.com%3A1337","udp%3A%2F%2Ftracker.coppersurfer.tk%3A6969","udp%3A%2F%2Fexodus.desync.com%3A6969"],"infoHash":"4e7c6f617bd71577b340c4d3cddf705e492afafc","infoHashBuffer":{"type":"Buffer","data":[78,124,111,97,123,215,21,119,179,64,196,211,205,223,112,94,73,42,250,252]},"announce":[],"urlList":[]}}